<svg width="160" height="125" viewBox="0 0 160 125" fill="none" xmlns="http://www.w3.org/2000/svg">
<path d="M137.322 64.4688C137.204 61.9912 136.486 60.0373 135.808 58.7813C112.311 67.0938 94.6663 83.5 89.0025 91.375C96.6269 81.75 121.025 67.3125 137.322 64.4688Z" fill="white"/>
<path d="M90.7153 91.5938C94.6808 88.215 101.964 84.3355 107.623 81.3877C108.254 81.0587 108.865 80.7413 109.449 80.4375C111.684 79.2754 113.975 78.2168 116.269 77.2601C126.48 73.0009 136.755 70.7613 142.43 70.3954C142.549 70.3878 142.665 70.381 142.779 70.375C142.801 70.3738 142.818 70.3727 142.829 70.3717C142.933 70.3627 142.592 70.3616 142.285 70.3638C142.13 70.365 141.984 70.3669 141.908 70.3691C141.842 70.371 141.829 70.3731 141.907 70.375L141.908 70.3691C141.906 68.7241 141.156 67.1875 140.6 65.7813C132.605 67.2724 122.211 70.7226 114.895 74.5313C105.207 79.575 96.0455 86.6459 90.7153 91.5938Z" fill="white"/>
<path d="M92.2402 93.125C111.41 80.2188 134.501 76.9375 143.609 77.1562C144.036 75.4706 144.667 73.533 144.111 72.125C129.926 72.125 100.3 84.8125 92.2402 93.125Z" fill="white"/>
<path d="M22.6785 64.4688C22.7959 61.9912 23.5141 60.0373 24.1921 58.7813C47.6887 67.0938 65.3337 83.5 70.9975 91.375C63.3731 81.75 38.9752 67.3125 22.6785 64.4688Z" fill="white"/>
<path d="M67.7598 93.125C48.59 80.2188 25.4991 76.9375 16.3911 77.1562C15.9642 75.4706 15.3327 73.533 15.8893 72.125C30.0737 72.125 59.6998 84.8125 67.7598 93.125Z" fill="white"/>
<path fill-rule="evenodd" clip-rule="evenodd" d="M45.1046 74.5313C38.1046 70.9914 26.9729 67.1936 19.3996 65.7813C27.3954 67.2724 37.7888 70.7226 45.1046 74.5313Z" fill="white"/>
<path d="M19.3996 65.7813C26.9729 67.1936 38.1046 70.9914 45.1046 74.5313C54.7927 79.575 63.9545 86.6459 69.2847 91.5938C54.8438 82.1875 37.3918 72.1283 18.0938 70.375C18.1051 70.376 18.9663 70.375 18.0938 70.375C18.0938 70.375 18.9067 67.0279 19.3996 65.7813Z" fill="white"/>
<path d="M80 100.274L80.0412 100.344C90.4975 83.7187 108.142 67.75 129.273 59.4375C129.273 59.4375 129.014 10 80 10C30.9863 10 30.7272 59.4375 30.7272 59.4375C51.8576 67.75 69.5025 83.7187 79.9588 100.344L80 100.274Z" fill="#FFD147"/>
<path d="M89.0025 91.375C94.6663 83.5 112.311 67.0938 135.808 58.7813C135.48 58.1742 135.132 57.7301 134.895 57.4688L129.273 59.4375C108.142 67.75 90.4975 83.7187 80.0412 100.344L80 100.274L79.9588 100.344C69.5025 83.7187 51.8576 67.75 30.7272 59.4375L25.1046 57.4688C24.868 57.7301 24.5198 58.1742 24.1921 58.7813C47.6887 67.0938 65.3337 83.5 70.9975 91.375C63.3731 81.75 38.9752 67.3125 22.6785 64.4688C21.8071 64.2938 20.7478 64.1042 20.3122 64.0313C20.2482 64.1598 20.1236 64.3186 19.9836 64.4972C19.806 64.7237 19.6036 65.2513 19.468 65.6046L19.467 65.6072C19.4421 65.6722 19.4194 65.7312 19.3996 65.7813C27.3954 67.2724 37.7888 70.7226 45.1046 74.5313C55.3139 79.694 63.9442 86.5428 69.2847 91.5938C54.8438 82.1875 37.3918 72.1283 18.0938 70.375C18.0938 70.375 16.7102 70.3736 16.5611 70.3743L16.3911 70.375C16.2363 70.6636 16.004 71.5505 15.8893 72.125C30.0737 72.125 59.6998 84.8125 67.7598 93.125C48.59 80.2188 25.4991 76.9375 16.3911 77.1562C14.6484 76.9812 13.2687 77.0833 12.9056 77.1562C12.839 77.6691 12.7724 78.3675 12.7369 79.125C19.3645 78.6068 29.5008 79.7616 43.144 84.1563C54.4582 87.8007 68.7964 93.5688 80 103.406C91.2036 93.5688 105.542 87.8007 116.856 84.1563C130.499 79.7616 140.636 78.6068 147.263 79.125C147.228 78.3675 147.161 77.6691 147.094 77.1562C146.731 77.0833 145.352 76.9812 143.609 77.1562C134.501 76.9375 111.41 80.2188 92.2402 93.125C100.3 84.8125 129.926 72.125 144.111 72.125C143.996 71.5505 143.764 70.6636 143.609 70.375L143.439 70.3743L142.829 70.3717C142.818 70.3727 142.801 70.3738 142.779 70.375C142.785 70.4608 142.619 70.4354 142.43 70.3954C136.755 70.7613 126.48 73.0009 116.269 77.2601C114.005 78.2281 111.717 79.2892 109.449 80.4375C108.865 80.7413 108.254 81.0587 107.623 81.3877C102.4 84.1636 94.3723 88.8644 90.7153 91.5938C96.0558 86.5428 104.686 79.694 114.895 74.5313C122.211 70.7226 132.605 67.2724 140.6 65.7813C140.581 65.7316 140.558 65.6731 140.534 65.6087L140.532 65.6046C140.396 65.2513 140.194 64.7237 140.016 64.4972C139.876 64.3186 139.752 64.1598 139.688 64.0313C139.252 64.1042 138.193 64.2938 137.322 64.4688C121.025 67.3125 96.6269 81.75 89.0025 91.375Z" fill="#2A1C06"/>
<path d="M116.856 84.1563C105.542 87.8007 91.2036 93.5688 80 103.406C68.7964 93.5688 54.4582 87.8007 43.144 84.1563C29.5008 79.7616 19.3645 78.6068 12.7369 79.125C12.6564 80.8444 12.7364 82.8684 13.3413 83.7187L72.1166 100.344C72.1166 100.344 72.1166 108.875 79.9588 108.875L80 108.875L80.0412 108.875C87.8834 108.875 87.8834 100.344 87.8834 100.344L146.659 83.7187C147.264 82.8684 147.344 80.8444 147.263 79.125C140.636 78.6068 130.499 79.7616 116.856 84.1563Z" fill="white"/>
<path d="M146.659 83.7187L87.8834 100.344C87.8834 100.344 87.8834 108.875 80.0412 108.875L80 108.875L79.9588 108.875C72.1166 108.875 72.1166 100.344 72.1166 100.344L13.3413 83.7187C12.0016 83.4083 10.8569 84.4197 10.3224 85.6875L69.2435 102.094C69.2435 102.094 70.3327 111.281 79.9588 111.281L80 111.281L80.0412 111.281C89.6673 111.281 90.7565 102.094 90.7565 102.094L149.678 85.6875C149.143 84.4197 147.998 83.4083 146.659 83.7187Z" fill="#FFD147"/>
<path d="M80 115C91.9811 115 91.9811 105.156 91.9811 105.156C102.807 102.216 121.468 96.9882 134.397 93.3666L134.399 93.3659C142.628 91.0607 148.534 89.4062 148.619 89.4062C150.111 88.8299 150.273 87.0996 149.678 85.6875L90.7565 102.094C90.7565 102.094 89.6673 111.281 80.0412 111.281L80 111.281L79.9588 111.281C70.3327 111.281 69.2435 102.094 69.2435 102.094L10.3224 85.6875C9.72701 87.0996 9.88859 88.8299 11.3808 89.4062C11.4655 89.4062 17.3685 91.0598 25.594 93.364L25.6007 93.3659L25.6033 93.3666C38.5321 96.9883 57.1934 102.216 68.0189 105.156C68.0189 105.156 68.0189 115 80 115Z" fill="#2A1C06"/>
</svg>
