<svg width="16" viewBox="0 0 12 12" fill="none" xmlns="http://www.w3.org/2000/svg">
<path d="M6.67198 1C6.67198 0.723858 6.44812 0.5 6.17198 0.5C5.89584 0.5 5.67198 0.723858 5.67198 1H6.67198ZM5.67198 11C5.67198 11.2761 5.89584 11.5 6.17198 11.5C6.44812 11.5 6.67198 11.2761 6.67198 11H5.67198ZM10.9546 6.5C11.2307 6.5 11.4546 6.27614 11.4546 6C11.4546 5.72386 11.2307 5.5 10.9546 5.5V6.5ZM0.95459 5.5C0.678447 5.5 0.45459 5.72386 0.45459 6C0.45459 6.27614 0.678447 6.5 0.95459 6.5V5.5ZM5.67198 1V6H6.67198V1H5.67198ZM5.67198 6V11H6.67198V6H5.67198ZM6.17198 6.5H10.9546V5.5H6.17198V6.5ZM10.9546 5.5H0.95459V6.5H10.9546V5.5Z" fill="black"/>
</svg>
