<svg width="68" height="68" viewBox="0 0 68 68" fill="none" xmlns="http://www.w3.org/2000/svg">
<path d="M33.7823 34.0001C29.1654 34.0001 25.2132 32.3681 21.9254 29.1042C18.6376 25.8404 16.9938 21.9167 16.9938 17.3334C16.9938 12.7501 18.6376 8.82647 21.9254 5.56258C25.2132 2.29869 29.1654 0.666748 33.7823 0.666748C38.3991 0.666748 42.3514 2.29869 45.6392 5.56258C48.9269 8.82647 50.5708 12.7501 50.5708 17.3334C50.5708 21.9167 48.9269 25.8404 45.6392 29.1042C42.3514 32.3681 38.3991 34.0001 33.7823 34.0001ZM0.205254 67.3334V55.6667C0.205254 53.3056 0.818035 51.1362 2.0436 49.1584C3.26916 47.1806 4.89485 45.6695 6.92066 44.6251C11.2577 42.4723 15.6647 40.8584 20.1416 39.7834C24.6186 38.7084 29.1654 38.1695 33.7823 38.1667C38.3991 38.164 42.946 38.7029 47.423 39.7834C51.8999 40.864 56.3069 42.4779 60.6439 44.6251C62.6725 45.6667 64.2996 47.1779 65.5252 49.1584C66.7507 51.139 67.3621 53.3084 67.3593 55.6667V67.3334H0.205254Z" fill="black"/>
</svg>
