<svg width="25" height="19" viewBox="0 0 25 19" fill="none" xmlns="http://www.w3.org/2000/svg">
<path d="M0 15.9404C0 16.7402 0.32924 17.5073 0.915291 18.0729C1.50134 18.6384 2.2962 18.9562 3.125 18.9562H21.875C22.7038 18.9562 23.4987 18.6384 24.0847 18.0729C24.6708 17.5073 25 16.7402 25 15.9404V7.64709H0V15.9404ZM3.68304 11.8476C3.68304 11.4191 3.85941 11.0082 4.17337 10.7052C4.48733 10.4022 4.91314 10.232 5.35714 10.232H8.03571C8.47972 10.232 8.90553 10.4022 9.21949 10.7052C9.53344 11.0082 9.70982 11.4191 9.70982 11.8476V12.9247C9.70982 13.3531 9.53344 13.7641 9.21949 14.067C8.90553 14.37 8.47972 14.5402 8.03571 14.5402H5.35714C4.91314 14.5402 4.48733 14.37 4.17337 14.067C3.85941 13.7641 3.68304 13.3531 3.68304 12.9247V11.8476ZM21.875 0H3.125C2.2962 0 1.50134 0.31773 0.915291 0.883294C0.32924 1.44886 0 2.21593 0 3.01575V4.41592H25V3.01575C25 2.21593 24.6708 1.44886 24.0847 0.883294C23.4987 0.31773 22.7038 0 21.875 0Z" fill="#3B362B"/>
</svg>
