<svg width="66" height="65" viewBox="0 0 66 65" fill="none" xmlns="http://www.w3.org/2000/svg">
<path d="M30.2653 0C32.8905 0.000552172 35.408 1.02806 37.264 2.85653L62.7051 27.9121C64.8148 29.9903 66 32.8086 66 35.7473C66 38.6859 64.8148 41.5043 62.7051 43.5824L44.2529 61.755C42.1428 63.8328 39.2811 65 36.2972 65C33.3133 65 30.4517 63.8328 28.3415 61.755L2.90048 36.6994C1.04388 34.8715 0.000560667 32.3922 0 29.8067V12.999C0 9.55145 1.3906 6.24511 3.86589 3.80732C6.34119 1.36953 9.6984 0 13.199 0H30.2653ZM18.1486 11.3741C16.4836 11.3736 14.88 11.9929 13.6591 13.1079C12.4383 14.2228 11.6905 15.751 11.5656 17.3862L11.5491 17.8736C11.5491 19.1591 11.9362 20.4157 12.6613 21.4846C13.3865 22.5534 14.4172 23.3865 15.6231 23.8784C16.829 24.3703 18.1559 24.499 19.4361 24.2482C20.7163 23.9975 21.8922 23.3784 22.8152 22.4695C23.7381 21.5605 24.3667 20.4024 24.6213 19.1416C24.8759 17.8808 24.7452 16.574 24.2457 15.3864C23.7462 14.1987 22.9004 13.1837 21.8151 12.4695C20.7298 11.7553 19.4539 11.3741 18.1486 11.3741Z" fill="black"/>
</svg>
