<svg width="36" height="36" viewBox="0 0 36 36" fill="none" xmlns="http://www.w3.org/2000/svg">
<path d="M24.0015 25.585L27.1015 22.4838C27.519 22.0712 28.0473 21.7889 28.6221 21.6709C29.197 21.5529 29.7937 21.6045 30.3398 21.8192L34.1179 23.3283C34.6698 23.5524 35.143 23.9349 35.478 24.4277C35.8129 24.9204 35.9946 25.5014 36 26.0972V33.0195C35.9968 33.4249 35.9116 33.8254 35.7496 34.1969C35.5876 34.5685 35.3521 34.9034 35.0573 35.1815C34.7625 35.4596 34.4145 35.6751 34.0343 35.8151C33.654 35.9551 33.2494 36.0167 32.8447 35.9961C6.37056 34.3486 1.02868 11.9203 0.0184301 3.33662C-0.0284664 2.9151 0.0143817 2.48842 0.144156 2.08466C0.273929 1.6809 0.487688 1.3092 0.771368 0.994014C1.05505 0.678831 1.40222 0.427309 1.79005 0.255994C2.17787 0.0846789 2.59756 -0.00254625 3.02151 5.65817e-05H9.70578C10.3023 0.00182286 10.8846 0.182069 11.3778 0.51761C11.8711 0.853152 12.2527 1.32864 12.4736 1.88293L13.982 5.66252C14.2038 6.20671 14.2604 6.8042 14.1447 7.38038C14.029 7.95655 13.7462 8.48585 13.3316 8.90216L10.2317 12.0034C10.2317 12.0034 12.0169 24.0897 24.0015 25.585Z" fill="#574725"/>
</svg>
