<svg width="61" height="80" viewBox="0 0 61 80" fill="none" xmlns="http://www.w3.org/2000/svg">
<path d="M10.6361 0C7.96451 0 5.40237 1.05357 3.5133 2.92893C1.62422 4.8043 0.562954 7.34784 0.562954 10V70C0.562954 72.6522 1.62422 75.1957 3.5133 77.0711C5.40237 78.9464 7.96451 80 10.6361 80H58.4833C59.1512 80 59.7918 79.7366 60.264 79.2678C60.7363 78.7989 61.0016 78.163 61.0016 77.5C61.0016 76.837 60.7363 76.2011 60.264 75.7322C59.7918 75.2634 59.1512 75 58.4833 75H10.6361C9.30029 75 8.01922 74.4732 7.07468 73.5355C6.13015 72.5979 5.59951 71.3261 5.59951 70H55.9651C57.3008 70 58.5819 69.4732 59.5264 68.5355C60.471 67.5979 61.0016 66.3261 61.0016 65V10C61.0016 7.34784 59.9403 4.8043 58.0513 2.92893C56.1622 1.05357 53.6001 0 50.9285 0H10.6361ZM14.4135 12.5H47.1511C48.1529 12.5 49.1137 12.8951 49.8221 13.5983C50.5305 14.3016 50.9285 15.2554 50.9285 16.25C50.9285 17.2446 50.5305 18.1984 49.8221 18.9017C49.1137 19.6049 48.1529 20 47.1511 20H14.4135C13.4116 20 12.4508 19.6049 11.7424 18.9017C11.034 18.1984 10.6361 17.2446 10.6361 16.25C10.6361 15.2554 11.034 14.3016 11.7424 13.5983C12.4508 12.8951 13.4116 12.5 14.4135 12.5Z" fill="black"/>
</svg>
