<svg width="18" viewBox="0 0 14 14" fill="none" xmlns="http://www.w3.org/2000/svg">
<path fill-rule="evenodd" clip-rule="evenodd" d="M5.64896 7.644L5.64996 7.64301L5.96517 7.96444C7.55696 9.40823 10.019 9.33759 11.5247 7.78216C13.0613 6.19491 13.0202 3.66259 11.4329 2.12605C9.84569 0.589507 7.31336 0.630609 5.77682 2.21785C4.31467 3.72825 4.2811 6.09443 5.64896 7.644ZM4.93417 8.34497C3.18819 6.40892 3.21803 3.42334 5.05833 1.52231C6.97901 -0.46174 10.1444 -0.513117 12.1285 1.40756C14.1125 3.32823 14.1639 6.49364 12.2432 8.47769C10.4775 10.3017 7.65988 10.4922 5.67518 9.0189L1.35007 13.2604L0.649902 12.5464L4.93417 8.34497Z" fill="black"/>
</svg>
