<svg width="24" height="24" viewBox="0 0 24 24" fill="none" xmlns="http://www.w3.org/2000/svg">
<path d="M21.75 11.25H2.25V15.75H21.75V11.25Z" fill="#574725"/>
<path d="M2.25 17.25V19.5C2.25045 19.8977 2.40864 20.279 2.68984 20.5602C2.97105 20.8414 3.35231 20.9995 3.75 21H20.25C20.6477 20.9995 21.029 20.8414 21.3102 20.5602C21.5914 20.279 21.7495 19.8977 21.75 19.5V17.25H2.25Z" fill="#574725"/>
<path d="M21.75 9.75V7.5C21.7495 7.10231 21.5914 6.72105 21.3102 6.43984C21.029 6.15864 20.6477 6.00045 20.25 6H16.5V5.25C16.4993 4.65347 16.262 4.08157 15.8402 3.65976C15.4184 3.23795 14.8465 3.00068 14.25 3H9.75C9.15347 3.00068 8.58157 3.23795 8.15976 3.65976C7.73795 4.08157 7.50068 4.65347 7.5 5.25V6H3.75C3.35231 6.00045 2.97105 6.15864 2.68984 6.43984C2.40864 6.72105 2.25045 7.10231 2.25 7.5V9.75H21.75Z" fill="#574725"/>
<path d="M9.21992 4.71992C9.07932 4.86052 9.00023 5.05116 9 5.25V6H15V5.25C14.9998 5.05116 14.9207 4.86052 14.7801 4.71992C14.6395 4.57932 14.4488 4.50023 14.25 4.5H9.75C9.55116 4.50023 9.36052 4.57932 9.21992 4.71992Z" fill="#574725"/>
</svg>
