<svg width="25" height="24" viewBox="0 0 25 24" fill="none" xmlns="http://www.w3.org/2000/svg">
<path d="M16.8074 17.2041L13.0454 13.6371C12.9079 13.5067 12.7454 13.483 12.6579 13.483C12.5704 13.483 12.4079 13.5067 12.2704 13.6371L8.4959 17.216C8.07095 17.6189 7.40852 18.2707 5.19629 18.2707L9.83324 22.6555C10.5363 23.3212 11.4893 23.6952 12.4829 23.6952C13.4766 23.6952 14.4296 23.3212 15.1326 22.6555L19.782 18.2588C18.6447 18.2588 17.6948 18.0455 16.8074 17.2041ZM8.4959 6.47922L12.2704 10.0581C12.3704 10.1529 12.5204 10.2122 12.6579 10.2122C12.7954 10.2122 12.9454 10.1529 13.0454 10.0581L16.7824 6.51477C17.6698 5.63782 18.6822 5.43636 19.8195 5.43636L15.1701 1.03974C14.4671 0.37396 13.5141 0 12.5204 0C11.5268 0 10.5738 0.37396 9.87073 1.03974L5.23378 5.4245C7.43352 5.4245 8.10844 6.11185 8.4959 6.47922Z" fill="#3B362B"/>
<path d="M23.8814 9.29968L21.0692 6.62142H19.4944C18.8195 6.62142 18.1445 6.88213 17.6821 7.34431L13.9325 10.8995C13.5826 11.2314 13.1201 11.3973 12.6577 11.3973C12.1815 11.3909 11.7257 11.213 11.3828 10.8995L7.60829 7.30876C7.13335 6.85843 6.48343 6.59772 5.79601 6.59772H3.95873L1.09657 9.32338C0.394401 9.98999 0 10.8936 0 11.8357C0 12.7779 0.394401 13.6815 1.09657 14.3481L3.95873 17.0738H5.80851C6.48343 17.0738 7.13335 16.813 7.62079 16.3627L11.3953 12.7838C11.7453 12.452 12.2077 12.2861 12.6702 12.2861C13.1326 12.2861 13.5951 12.452 13.945 12.7838L17.7071 16.3509C18.182 16.8012 18.832 17.0619 19.5194 17.0619H21.0942L23.9063 14.3836C24.6115 13.705 25.0046 12.7894 25 11.8368C24.9953 10.8842 24.5931 9.97203 23.8814 9.29968Z" fill="#3B362B"/>
</svg>
