<svg width="48" height="48" viewBox="0 0 48 48" fill="none" xmlns="http://www.w3.org/2000/svg">
<path d="M46 11.7753H43.5556C40.9623 11.7753 38.4753 10.7454 36.6416 8.91218C34.8079 7.07896 33.7778 4.59257 33.7778 2H24V30.104C24 31.1454 23.7337 32.1695 23.2265 33.0791C22.7192 33.9887 21.9878 34.7536 21.1017 35.3011C20.2156 35.8486 19.2042 36.1606 18.1636 36.2074C17.1229 36.2542 16.0876 36.0343 15.1559 35.5686C14.2242 35.1028 13.427 34.4067 12.8401 33.5463C12.2532 32.686 11.896 31.6899 11.8025 30.6527C11.7089 29.6155 11.8821 28.5716 12.3056 27.6201C12.7291 26.6686 13.3889 25.8412 14.2222 25.2163V14.659C11.3172 15.3478 8.66508 16.841 6.56983 18.9674C4.47457 21.0937 3.02097 23.7673 2.37562 26.6816C1.73028 29.5959 1.9193 32.633 2.92102 35.4448C3.92275 38.2566 5.69664 40.7294 8.03939 42.5797C10.3821 44.43 13.1989 45.583 16.167 45.9064C19.135 46.2299 22.1341 45.7108 24.8206 44.4086C27.5071 43.1064 29.7723 41.0739 31.3565 38.5439C32.9407 36.0139 33.7799 33.0888 33.7778 30.104V18.9113C36.7486 20.6342 40.121 21.5445 43.5556 21.5506H46V11.7753Z" stroke="white" stroke-width="4" stroke-linecap="round" stroke-linejoin="round"/>
</svg>
